<svg xmlns="http://www.w3.org/2000/svg" enable-background="new 0 0 2500 2500" viewBox="0 0 2500 2500"><path fill="#060f11" d="M1576.31,2149.95c-1.76,0-3.19-1.41-3.21-3.17c-0.02-1.77,1.4-3.23,3.17-3.25l292.62-3.7
			c0.01,0,0.03,0,0.04,0c1.76,0,3.19,1.41,3.21,3.17c0.02,1.77-1.4,3.23-3.17,3.25l-292.62,3.7
			C1576.33,2149.95,1576.32,2149.95,1576.31,2149.95z"/><g opacity=".4"><path fill="#b7bef8" d="M1945.08,1215.72l-0.72,0.47c-20.78,14.19-48.76,10.66-65.67-8
								c-95.45-105.34-250.76-134.65-377.95-71.24c-22.56,11.25-49.92,4.37-64.11-16.41l-0.47-0.72
								c-17.21-25.19-8.11-59.68,19.16-73.29c167.78-83.8,372.78-45.17,498.57,93.96
								C1974.33,1163.09,1970.22,1198.5,1945.08,1215.72z"/><path fill="#b7bef8" d="M2263.58,956.88l-0.68,0.48c-21.79,14.87-51.39,10.33-67.68-10.39
								c-103.33-131.58-249.27-220.27-415.58-251.62c-166.36-31.32-334.6-1.82-478.66,83.11c-22.73,13.39-51.96,6.82-66.84-14.93
								l-0.47-0.72c-16.4-23.98-9-56.81,16.01-71.59c165.22-97.4,358.01-131.25,548.67-95.29
								c190.67,35.91,357.91,137.6,476.34,288.42C2292.65,907.19,2287.55,940.48,2263.58,956.88z"/><path fill="#b7bef8" d="M2104.57,1086.13l-0.92,0.65c-21.5,14.66-50.42,10.16-66.95-9.92
								c-154.57-187.48-423.19-238.06-635.36-119.68c-22.73,12.66-51.28,6.31-65.95-15.16l-0.64-0.96
								c-16.5-24.16-9.04-57.54,16.49-71.84c255.1-142.87,578.5-81.9,764.14,144C2133.93,1035.82,2128.74,1069.59,2104.57,1086.13z"/></g><path fill="#ff452d" d="M1781.49,1379.04c-12.35,70.59-79.63,117.8-150.18,105.45c-70.6-12.35-117.81-79.59-105.45-150.18
							c12.35-70.6,79.59-117.81,150.18-105.45C1746.58,1241.2,1793.84,1308.44,1781.49,1379.04z" opacity=".6"/><path fill="#ff452d" d="M1681.52,1190.7c-1.06-0.19-2.13-0.39-3.2-0.62c-42.41-9.04-71.67-48.42-68.06-91.6l40.52-493.68
							c0.58-6.89,1.52-13.44,2.79-19.4c16.9-79.26,92.76-130.4,172.69-116.41c1.87,0.33,3.74,0.69,5.61,1.09
							c42.23,9.01,78.56,35.76,99.7,73.4c21.17,37.69,25.09,82.72,10.77,123.54l-164.38,467.17
							C1763.85,1174.23,1723.29,1198.01,1681.52,1190.7C1681.52,1190.7,1681.52,1190.7,1681.52,1190.7z" opacity=".6"/><path fill="#ffc1a4" d="M1150.01,938.34L1301.63,865l266.68,374.55c20.26,28.46,30.62,62.79,29.48,97.71v0
						c-2.81,86.01-73.34,154.28-159.4,154.28h-145.56l-4.11-204.86l84.82,10.32L1150.01,938.34z"/><polygon fill="#f7b094" points="1312.98 1289.62 1373.17 1491.58 1322.74 1491.58"/><path fill="#060606" d="M1101.1,1119.77c-31.2,65.61-64.27,133.62-121.3,178.62c-21.57,17.02-47.03,30.53-74.44,32.39
						c-126.72,8.6-78.89-167.28-41.8-230.31c14.7-24.98,34.82-48.82,62.39-57.72c29.7-9.59,62.94,0.25,88.43,18.26
						s44.72,43.34,63.53,68.25"/><path fill="#060606" d="M1002.51,842.32c-214.99,41.51-351.28,267.61-409.13,342.72c-22.8,29.6-45.76,59.46-62.16,93.04
						c-16.39,33.58,23.63,103.01,29.29,139.95c7.59,49.5,42.74,92.49,87.18,115.57c44.44,23.08,97.03,27.58,146.36,18.95
						c49.64-8.69,99.86-32.97,124.07-77.17c15.22-27.79,18.62-60.27,27.27-90.76c8.65-30.48,25.48-61.96,55.17-73.03"/><path fill="#b7bef8" d="M217.77,2097.54c0,38.86,100.82,72.95,252.49,92.2c56.83,7.2,120.79,12.34,189.26,14.84
									c26.88,0.99,54.46,1.58,82.54,1.73c4.74,0.04,9.5,0.04,14.27,0.04c23.95,0,47.49-0.33,70.6-0.92
									c5.5-0.15,10.97-0.33,16.41-0.51c7.27-0.22,14.51-0.48,21.68-0.77c43.62-1.84,85.31-4.7,124.36-8.49
									c27.05-2.64,52.83-5.69,77.11-9.18c138.17-19.65,228.41-52.16,228.41-88.93c0-39.38-103.75-73.91-259.1-93.01
									c-21.11-2.57-43.19-4.89-66.07-6.87c-27.45-2.42-56.06-4.37-85.64-5.8c-1.17-0.07-2.34-0.11-3.5-0.18
									c-39.89-1.91-81.51-2.9-124.26-2.9c-14.27,0-28.38,0.11-42.36,0.33c-5.87,0.11-11.67,0.22-17.47,0.33
									c-71.54,1.58-138.84,6.02-199.1,12.71C330.73,2020.66,217.77,2056.44,217.77,2097.54z"/><path fill="#060f11" d="M756.34,2209.56c-4.78,0-9.56,0-14.3-0.04c-27.69-0.15-55.5-0.73-82.63-1.73
									c-67.31-2.46-131.08-7.46-189.55-14.86c-162.25-20.59-255.3-55.36-255.3-95.39c0-42.09,105.61-78.95,282.5-98.59
									c62.17-6.9,129.25-11.18,199.39-12.73l17.48-0.33c13.9-0.22,28.17-0.33,42.42-0.33c42.3,0,84.16,0.98,124.42,2.91l3.55,0.19
									c29.3,1.42,58.16,3.38,85.72,5.81c22.32,1.94,44.58,4.25,66.17,6.88c164.01,20.17,261.92,56.13,261.92,96.2
									c0,37.64-84.26,71.22-231.18,92.11c-23.79,3.42-49.78,6.52-77.25,9.2c-39.4,3.82-81.3,6.68-124.54,8.5
									c-7.18,0.29-14.43,0.55-21.71,0.77c-5.43,0.18-10.91,0.37-16.42,0.52C803.06,2209.25,779.28,2209.56,756.34,2209.56z
									 M756.34,1991.99c-14.22,0-28.45,0.11-42.3,0.33l-17.46,0.33c-69.93,1.55-136.83,5.82-198.81,12.69
									c-168.14,18.67-276.78,54.87-276.78,92.2c0,35.36,95.67,69.47,249.68,89.01c58.27,7.38,121.85,12.37,188.97,14.82
									c27.07,1,54.81,1.58,82.44,1.72c27.5,0.22,55.89-0.14,84.78-0.88c5.49-0.15,10.95-0.33,16.38-0.51
									c7.27-0.22,14.5-0.48,21.65-0.77c43.12-1.82,84.9-4.67,124.18-8.47c27.37-2.68,53.27-5.76,76.96-9.17
									c139.19-19.8,225.66-52.66,225.66-85.75c0-35.96-98.2-70.38-256.28-89.82c-21.51-2.62-43.7-4.93-65.95-6.86
									c-27.48-2.43-56.25-4.38-85.52-5.8l-3.55-0.19C840.29,1992.96,798.53,1991.99,756.34,1991.99z"/><path fill="#e7ebfb" d="M1294.93,2097.55c0,11.83-9.29,23.18-26.49,33.76c-40.26-24.9-123.79-45.88-232.64-59.25
									c-21.12-2.57-43.2-4.89-66.05-6.87c-27.48-2.43-56.09-4.37-85.66-5.8c-1.18-0.07-2.31-0.11-3.49-0.18
									c-39.89-1.91-81.51-2.9-124.27-2.9c-14.25,0-28.4,0.11-42.35,0.33c-5.88,0.11-11.68,0.22-17.49,0.33
									c-71.52,1.58-138.82,6.02-199.1,12.71c-118.87,13.19-210.41,35.19-253.13,61.64c-17.19-10.62-26.49-21.97-26.49-33.76
									c0-41.1,112.96-76.88,279.62-95.4c60.28-6.68,127.58-11.13,199.1-12.71c5.8-0.11,11.61-0.22,17.49-0.33
									c13.96-0.22,28.1-0.33,42.35-0.33c42.76,0,84.38,0.99,124.27,2.9c1.18,0.08,2.31,0.11,3.49,0.18
									c29.57,1.43,58.19,3.38,85.66,5.8c22.85,1.98,44.93,4.3,66.05,6.87C1191.16,2023.64,1294.93,2058.17,1294.93,2097.55z"/><path fill="#060f11" d="M244.27,2134.52c-0.59,0-1.17-0.16-1.69-0.48c-18.59-11.48-28.01-23.76-28.01-36.49
									c0-42.09,105.6-78.94,282.48-98.59c62.19-6.9,129.28-11.18,199.38-12.73l17.5-0.33c13.88-0.22,28.15-0.33,42.41-0.33
									c42.28,0,84.14,0.98,124.42,2.9l3.54,0.19c29.28,1.42,58.14,3.37,85.75,5.81c22.28,1.93,44.54,4.25,66.15,6.88
									c164.03,20.17,261.95,56.13,261.95,96.2c0,12.78-9.43,25.06-28.01,36.5c-1.03,0.64-2.34,0.64-3.38,0
									c-39.51-24.44-121.67-45.32-231.34-58.79c-21.51-2.62-43.7-4.93-65.93-6.86c-27.52-2.43-56.3-4.38-85.54-5.8l-3.54-0.19
									c-40.12-1.92-81.88-2.9-124.07-2.9c-14.23,0-28.46,0.11-42.3,0.33l-17.47,0.33c-69.91,1.54-136.8,5.81-198.8,12.69
									c-120.18,13.33-209.61,35.06-251.8,61.18C245.44,2134.36,244.85,2134.52,244.27,2134.52z M756.34,2053.08
									c42.29,0,84.16,0.98,124.42,2.91l3.54,0.19c29.28,1.42,58.14,3.37,85.75,5.81c22.3,1.94,44.56,4.25,66.15,6.88
									c109.03,13.4,191.32,34.2,232.22,58.66c15.46-9.86,23.3-19.94,23.3-29.98c0-35.96-98.21-70.38-256.3-89.82
									c-21.53-2.62-43.72-4.93-65.93-6.86c-27.52-2.43-56.3-4.38-85.54-5.8l-3.54-0.19c-40.13-1.92-81.88-2.89-124.06-2.89
									c-14.23,0-28.46,0.11-42.3,0.33l-17.47,0.33c-69.91,1.55-136.8,5.81-198.8,12.69c-168.13,18.68-276.76,54.87-276.76,92.2
									c0,10,7.83,20.08,23.3,29.98c43.65-26.14,133.23-47.79,252.75-61.05c62.19-6.9,129.28-11.18,199.38-12.73l17.5-0.33
									C727.81,2053.19,742.07,2053.08,756.34,2053.08z"/><path fill="#141323" d="M684.67,1813.67l15.69,110.09l9.33,65.35l30.93,217.21c5.22,0.04,10.47,0.04,15.72,0.04
											c26.37,0,52.31-0.33,77.77-0.92c6.06-0.15,12.09-0.33,18.07-0.51c8.01-0.22,15.98-0.48,23.88-0.77
											c48.05-1.84,93.97-4.7,136.98-8.49c29.79-2.64,58.19-5.69,84.93-9.18l-33.8-181.94l-70.16-378.03l-34.53,20.9
											L684.67,1813.67z"/><path fill="#07070f" d="M834.1,2205.43c6.06-0.15,12.09-0.33,18.07-0.51c8.01-0.22,15.98-0.48,23.88-0.77l18.99-200.86
											l-11.2,37.21L834.1,2205.43z"/><path fill="#fff" d="M1013.03,2198.87c-1.62,0-3.01-1.22-3.19-2.87c-7.2-66.45-14.43-132.97-21.63-197.99
											c-0.74-6.63-3.2-12.62-7.14-17.43c-16.79-20.47-34.15-25.78-51.62-15.81c-12.5,6.27-22.67,16.14-29.56,28.63
											c-3.08,5.42-5.47,11.39-7.12,17.77c-0.03,0.1-0.07,0.24-0.11,0.37c-0.73,2.89-1.27,5.69-1.65,8.57
											c-0.23,1.76-1.87,3-3.6,2.77c-1.76-0.23-3-1.84-2.77-3.6c0.42-3.19,1.02-6.29,1.84-9.49c0.03-0.11,0.06-0.22,0.1-0.32
											c1.83-6.98,4.42-13.39,7.71-19.2c7.5-13.59,18.62-24.38,32.14-31.15c20.14-11.52,40.81-5.53,59.62,17.39
											c4.73,5.77,7.69,12.93,8.55,20.7c7.21,65.12,14.45,131.65,21.65,198.1c0.19,1.76-1.09,3.35-2.85,3.54
											C1013.26,2198.87,1013.15,2198.87,1013.03,2198.87z"/><path fill="#141323" d="M441.24,2189.75c62.59,7.2,133.05,12.34,208.46,14.84c29.61,0.99,59.99,1.58,90.92,1.73
											c5.22,0.04,10.47,0.04,15.72,0.04c26.37,0,52.31-0.33,77.77-0.92c6.06-0.15,12.09-0.33,18.07-0.51l31.66-164.42
											l3.97-20.79l1.76-9.11l0.04-0.07l3.6-18.84l66.27-344.27l2.87-14.91l-429.16-19.47l-62.04,389.12L441.24,2189.75z"/><path fill="#fff" d="M649.71,2207.8c-0.19,0-0.38-0.02-0.57-0.05c-1.75-0.31-2.91-1.99-2.59-3.73
											c5.62-31.21,11.89-63.03,17.95-93.79c7.83-39.71,15.92-80.78,22.78-121.32c4.03-24,7.27-45.45,9.9-65.56
											c0.33-2.37,0.63-4.7,0.92-7.03c0.22-1.76,1.82-3,3.59-2.79c1.76,0.22,3.01,1.82,2.79,3.59c-0.29,2.37-0.59,4.74-0.93,7.11
											c-2.63,20.16-5.88,41.68-9.93,65.76c-6.88,40.63-14.98,81.74-22.81,121.5c-6.06,30.74-12.32,62.53-17.93,93.69
											C652.59,2206.71,651.23,2207.8,649.71,2207.8z"/><polygon fill="#4a4ddc" points="1015.34 1264.28 1312.56 1279.63 1322.74 1525.9 1065.03 1509.35"/><path fill="#4a4ddc" d="M1099.1,1386.97l-22.92,499.25l-611.65-95.76l56.86-356.98l16.93-106.38
										c8.52-53.45,52.16-92.9,104.1-97.82c7.82-0.77,15.83-0.74,23.95,0.15l328.88,36.18
										C1056.45,1272.32,1101.93,1325.44,1099.1,1386.97z"/><path fill="#fff" d="M1086.66,1661.26c-0.05,0-0.1,0-0.15,0c-1.77-0.08-3.14-1.58-3.06-3.36l8.07-175.76
										c0.08-1.77,1.5-3.16,3.36-3.06c1.77,0.08,3.14,1.58,3.06,3.36l-8.07,175.76
										C1089.79,1659.92,1088.37,1661.26,1086.66,1661.26z"/><path fill="#fff" d="M528.85,1957.48c-0.43,0-0.86,0-1.29-0.01c-1.78-0.03-3.19-1.49-3.16-3.27
									c0.03-1.78,1.63-3.18,3.26-3.16c19.76,0.33,39.49-7.22,54.02-20.67c14.53-13.45,23.57-32.5,24.78-52.26
									c0.11-1.77,1.66-3.11,3.41-3.01c1.77,0.11,3.12,1.63,3.01,3.41c-1.32,21.39-11.1,42.02-26.84,56.58
									C570.63,1949.36,549.84,1957.48,528.85,1957.48z"/><path fill="#07070f" d="M1426.48,1849.63l-218.59,76.51c-12.32,4.33-25.97-5.31-30.58-21.44c-4.57-16.1,1.55-32.74,13.75-37.25
							l222.17-82.07c-0.35,8.53,0.1,16.97,1.32,25.32c0,0.04,0.01,0.15,0.05,0.18c0.91,6.12,2.23,12.29,3.99,18.35
							C1420.67,1836.3,1423.29,1843.12,1426.48,1849.63z"/><path fill="#07070f" d="M1648.15,1826.39c-101.42,38.23-195.19,32.27-223.88-10.89c-1.93-2.91-3.58-6.01-4.89-9.22
							c-1.33-3.31-2.35-6.76-3-10.28l-0.2-1.1c-7.64-47.27,48.79-113.44,136.76-156.89c1.81-0.86,3.67-1.79,5.57-2.67
							c2.05-1.01,3.92-1.87,5.8-2.73l4.9-2.22c77.07-34.27,161.42-44.92,212.61-24.97c14.05,5.45,24.97,13.03,32.45,22.51l0.38,0.72
							l0.4,0.37l0.11,0.15c2.24,3.03,4.11,6.17,5.6,9.41c12.53,27.1,0.87,62.3-32.33,98.36
							C1754.94,1773.28,1704.74,1805.04,1648.15,1826.39z M1860.16,1636.23c-2.04-4.26-4.54-8.26-7.39-12.07
							c-0.17-0.26-0.39-0.55-0.63-0.77c-0.18-0.29-0.39-0.57-0.6-0.83c-9.78-12.31-23.75-21.99-40.83-29.01
							c-59.74-24.43-155.27-15.97-245.75,23.97c-1.81,0.81-3.58,1.61-5.39,2.45c-2.16,0.99-4.36,1.98-6.48,3.01
							c-2.09,0.97-4.14,1.99-6.22,3.02c-90.76,44.7-148.65,110.71-151.28,165.2c-0.35,6.32,0.1,12.45,1.3,18.41
							c0,0.03,0.01,0.11,0.05,0.13c0.91,4.37,2.21,8.71,3.96,12.92c2.07,4.9,4.66,9.54,7.82,13.87
							c36.26,50.21,144.2,74.53,258.84,33.7C1804.09,1821.59,1894.52,1707.33,1860.16,1636.23z"/><path fill="#ffc1a4" d="M931.01,1400.81c57.07,7,42.46-65.63,37.05-126.35l21.35-113.72L908.97,1039l-99.69,206.14
										C809.28,1245.14,799.54,1384.67,931.01,1400.81z"/><path fill="#060606" d="M975.23,1236.28c0,0-44.76-51.98-53.13-94.31l63.14,41.04L975.23,1236.28z"/><path fill="#ffc1a4" d="M922.9,991.55c-40.9,85.49-32.68,177.4,45.88,214.99c78.57,37.59,175.41-1.25,216.3-86.73
										s10.36-185.26-68.2-222.84S963.8,906.06,922.9,991.55z"/><path fill="#060606" d="M1106.03,1148c-1.15,0-2.32-0.1-3.48-0.32c-5.21-0.95-9.6-3.78-13.48-6.27
										c-1.49-0.96-1.93-2.95-0.97-4.44c0.96-1.49,2.95-1.93,4.44-0.97c3.54,2.28,7.2,4.63,11.16,5.35
										c4.04,0.74,8.04-0.48,10.71-3.26c4.89-5.11,4.65-13.83,3.78-21.69l-4.75-42.46c-0.2-1.77,1.07-3.36,2.84-3.55
										c1.75-0.2,3.35,1.07,3.55,2.84l4.75,42.46c1.04,9.34,1.21,19.83-5.52,26.85C1115.67,1146.07,1110.98,1148,1106.03,1148z"/><path fill="#060606" d="M1046.58,1165.35c-1.37,0-2.63-0.88-3.07-2.25c-5.12-16.29-18.46-29.45-34.82-34.35
										c-1.7-0.51-2.67-2.3-2.16-4c0.51-1.7,2.3-2.66,4-2.16c18.37,5.5,33.36,20.28,39.11,38.58c0.53,1.69-0.41,3.5-2.1,4.03
										C1047.22,1165.3,1046.9,1165.35,1046.58,1165.35z"/><path fill="#060606" d="M890.31,971.09c0,0,131.27,69.49,259.03,12.39c35.66-15.93,44.4-62.61,16.53-89.97
										c-32.5-31.92-85.74-63.82-163.36-51.19C903.65,858.42,890.31,971.09,890.31,971.09z"/><path fill="#060606" d="M1055.84,1068.03c-0.43,9.08,4.33,16.72,10.61,17.07c6.32,0.29,11.86-6.79,12.34-15.83
									c0.47-9.14-4.28-16.78-10.61-17.07C1061.9,1051.84,1056.37,1058.93,1055.84,1068.03z"/><path fill="#060606" d="M1137.71,1082.31c-0.43,9.08,4.33,16.72,10.61,17.07c6.32,0.29,11.86-6.79,12.34-15.83
									c0.47-9.14-4.28-16.78-10.61-17.07C1143.77,1066.12,1138.24,1073.21,1137.71,1082.31z"/><circle cx="924.46" cy="1022.56" r="47.1" fill="#ffc1a4"/><path fill="#fff" d="M1053.75,990.55c-7.34,0-14.69-0.75-21.93-2.28c-1.74-0.37-2.85-2.07-2.48-3.81
									c0.37-1.74,2.08-2.85,3.81-2.48c32.47,6.88,68.76-3.71,92.44-26.97c1.27-1.24,3.3-1.23,4.55,0.04
									c1.24,1.27,1.23,3.3-0.04,4.55C1109.81,979.52,1081.92,990.55,1053.75,990.55z"/><path fill="#060606" d="M1154.37,972.13c0,0,9.2,22.94,48.91,63.8c0,0,19.4-18.67,7.24-63.93
								c-12.15-45.26-48.88-82.51-48.88-82.51L1154.37,972.13z"/><path fill="#ffc1a4" d="M1167.68,1751.29l8.12,172.29l-406.3-98.96c-42.96-10.46-78.51-40.5-96-81.12l-119.53-277.62
							l218.24-89.41l103.07,229.42L1167.68,1751.29z"/><polygon fill="#f7b094" points="809.12 1461.64 624.13 1628.83 596.5 1567.16"/><path fill="#4a4ddc" d="M822.53,1454.56l-241.67,127.61l-59.47-148.7l16.93-106.38c8.52-53.45,52.16-92.9,104.1-97.82
							c54.07,2.65,104.99,35.82,126.69,90.59L822.53,1454.56z"/><path fill="#fff" d="M601.71,1506.96c-1.2,0-2.35-0.67-2.9-1.82c-0.77-1.6-0.1-3.52,1.5-4.29l126.96-61.01
							c1.59-0.77,3.52-0.1,4.29,1.5c0.77,1.6,0.1,3.52-1.5,4.29l-126.96,61.01C602.65,1506.86,602.18,1506.96,601.71,1506.96z"/><path fill="#fff" d="M823,1452.2c-1.32,0-2.56-0.82-3.03-2.14l-41.13-115.52c-0.6-1.67,0.28-3.51,1.95-4.11
							c1.68-0.6,3.51,0.28,4.11,1.95l41.13,115.52c0.6,1.67-0.28,3.51-1.95,4.11C823.72,1452.14,823.36,1452.2,823,1452.2z"/><g><path fill="#ffc1a4" d="M1171.11,1916.7c12.14,18.85,44.58,63.47,71.41,70.81c31.76,8.77,40.1-20.49,40.1-20.49
							s15.15,6.55,28.44,0.04c13.31-6.56,12.26-20.89,12.26-20.89s11.38,5.61,23.44-5.33c15.35-13.92,2.17-31.71,2.17-31.71
							s26.72,2.87,33.22-8.54c14.05-24.7-6.57-35.64-6.57-35.64c-13.82,5.06-71.77-17.7-76.59-36.42
							c-0.45-1.73,30.68-12.26,30.68-12.26c-20.36-35.89-87.27-67.44-165.11-64.8"/><path fill="#060606" d="M1346.21,1911.94c-0.27,0-0.55-0.04-0.82-0.11c-13.5-3.57-25.84-11.45-34.75-22.2
							c-1.13-1.37-0.95-3.39,0.42-4.53c1.36-1.13,3.39-0.95,4.53,0.42c8.07,9.72,19.24,16.85,31.45,20.09
							c1.72,0.45,2.74,2.21,2.29,3.93C1348.93,1910.98,1347.63,1911.94,1346.21,1911.94z"/><path fill="#060606" d="M1320.99,1947.63c-0.5,0-1.02-0.12-1.5-0.37c-10.57-5.57-19.04-15.19-23.22-26.39
							c-0.62-1.66,0.22-3.51,1.89-4.14c1.67-0.62,3.52,0.23,4.14,1.89c3.64,9.74,11,18.11,20.19,22.96
							c1.57,0.83,2.17,2.77,1.34,4.34C1323.26,1947,1322.14,1947.63,1320.99,1947.63z"/><path fill="#060606" d="M1278.41,1967.38c-0.62,0-1.25-0.18-1.8-0.56c-11.96-8.13-22.16-19.01-29.5-31.47
							c-0.9-1.53-0.39-3.5,1.14-4.4c1.52-0.9,3.5-0.39,4.4,1.14c6.86,11.65,16.39,21.82,27.57,29.41c1.47,1,1.85,3,0.85,4.46
							C1280.45,1966.89,1279.44,1967.38,1278.41,1967.38z"/></g><g><path fill="#ffc1a4" d="M1145.05,799.67c-29.56,18.36-48.44,50.07-51.22,84.76c-1.65,20.64-0.7,40.95,8.67,44.51
								c20.07,7.63,36.45-23.02,36.45-23.02s7.64,31.76,37.54,20.38c0,0,4.92,28.69,32.3,24.77c0,0,20.86,39.68,50.35,36.82
								s65.37-28.66,75.7-79.18c10.34-50.51-58.9-123.67-120.22-128.76C1188.75,777.79,1164.47,787.61,1145.05,799.67z"/><path fill="#060606" d="M1256.06,991.24c-25.95,0-44.43-28.82-49.02-36.74c-20.14,1.74-29.75-13.23-32.87-24.03
								c-8.21,2.41-15.58,1.93-21.96-1.43c-12.45-6.57-16.22-21.73-16.38-22.37c-0.41-1.72,0.64-3.45,2.37-3.87
								c1.71-0.42,3.46,0.64,3.88,2.36c0.03,0.13,3.29,13.03,13.16,18.21c5.55,2.91,12.32,2.89,20.11-0.08
								c0.89-0.34,1.9-0.26,2.73,0.21c0.83,0.47,1.41,1.3,1.58,2.24c0.18,1.05,4.74,25.56,28.68,22.14c1.33-0.19,2.67,0.48,3.3,1.69
								c0.2,0.38,20.17,37.75,47.2,35.12c28.1-2.73,62.89-27.87,72.86-76.62c0.36-1.74,2.05-2.86,3.79-2.5
								c1.74,0.36,2.86,2.05,2.51,3.79c-10.63,51.95-48.17,78.78-78.54,81.73C1258.31,991.19,1257.18,991.24,1256.06,991.24z"/><path fill="#060606" d="M1138.95,909.13c-0.47,0-0.94-0.1-1.39-0.32c-1.6-0.77-2.27-2.69-1.5-4.29
								c0.73-1.51,18.06-37.24,35.67-49.81c1.45-1.03,3.45-0.7,4.48,0.75c1.03,1.44,0.69,3.45-0.75,4.48
								c-16.29,11.62-33.44,47-33.61,47.36C1141.29,908.45,1140.15,909.13,1138.95,909.13z"/><path fill="#060606" d="M1176.49,929.5c-0.68,0-1.36-0.21-1.94-0.65c-1.41-1.07-1.69-3.09-0.62-4.5
								c0.69-0.91,17.17-22.52,36.37-38.08c1.38-1.12,3.4-0.9,4.52,0.47c1.12,1.38,0.9,3.4-0.48,4.52
								c-18.59,15.05-35.13,36.75-35.29,36.97C1178.42,929.06,1177.46,929.5,1176.49,929.5z"/><path fill="#060606" d="M1208.8,954.27c-0.68,0-1.37-0.22-1.95-0.66c-1.41-1.08-1.68-3.09-0.6-4.51
								c0.96-1.25,23.67-30.8,42.82-42.35c1.52-0.92,3.49-0.43,4.41,1.09c0.92,1.52,0.43,3.5-1.09,4.41
								c-18.11,10.92-40.81,40.45-41.04,40.75C1210.72,953.84,1209.76,954.27,1208.8,954.27z"/></g><g><path fill="#ffd400" d="M509.09,694.72c7.91,16.92,12.61,33.32,14.14,49.19c1.52,15.88,0.2,30.82-3.93,44.82
					c-4.14,14-10.95,26.86-20.42,38.58c-9.48,11.73-21.25,21.88-35.33,30.47l25.73,61.49c1.53,3.81-0.11,7.97-4.91,12.48
					c-4.81,4.51-12.58,9.27-23.3,14.28c-6.81,3.18-12.6,5.7-17.39,7.56c-4.79,1.86-8.72,3.01-11.78,3.43
					c-3.07,0.43-5.55,0.21-7.47-0.66c-1.91-0.86-3.5-2.38-4.77-4.56l-36.92-71.72c-3.29-6.5-5.49-12.01-6.59-16.52
					c-1.1-4.51-1.15-8.51-0.14-12c1.01-3.49,2.95-6.47,5.81-8.94c2.86-2.47,6.56-4.77,11.11-6.89l4.33-2.03
					c10.93-5.11,19.55-11.27,25.85-18.5c6.3-7.22,10.68-14.92,13.14-23.11c2.46-8.18,3.04-16.75,1.75-25.7
					c-1.29-8.94-4.01-17.85-8.16-26.72c-4.63-9.9-10.26-18.33-16.91-25.28c-6.64-6.95-14.2-12.09-22.67-15.42
					c-8.47-3.33-17.73-4.59-27.79-3.79c-10.06,0.81-20.86,3.91-32.41,9.31c-10.52,4.92-19.32,10.29-26.4,16.11
					c-7.08,5.83-12.94,11.32-17.55,16.5c-4.62,5.18-8.35,9.69-11.21,13.53c-2.85,3.85-5.31,6.25-7.37,7.21
					c-1.45,0.68-3,0.84-4.67,0.49c-1.67-0.35-3.5-1.57-5.48-3.66c-1.98-2.09-4.29-5.28-6.93-9.58c-2.64-4.29-5.59-9.95-8.87-16.97
					c-3.38-7.22-5.52-12.62-6.45-16.22c-0.92-3.59-0.84-6.89,0.26-9.92c1.1-3.02,3.89-7.28,8.36-12.77
					c4.47-5.48,10.18-11.29,17.12-17.43c6.94-6.13,14.97-12.34,24.1-18.62c9.13-6.28,19.06-11.93,29.79-16.94
					c24.34-11.38,46.75-17.76,67.2-19.16c20.46-1.4,38.86,1,55.2,7.18c16.34,6.19,30.51,15.4,42.52,27.63
					C491.66,664.16,501.47,678.42,509.09,694.72z M541.46,1002.71c3.96,8.46,6.61,15.89,7.97,22.29c1.36,6.41,1.16,12.15-0.6,17.25
					c-1.76,5.1-5.12,9.75-10.07,13.94c-4.95,4.2-11.55,8.23-19.8,12.08c-8.66,4.05-16.14,6.6-22.43,7.66
					c-6.29,1.06-11.96,0.63-17-1.29c-5.04-1.91-9.59-5.45-13.63-10.6c-4.04-5.14-8.04-11.95-11.99-20.41
					c-4.05-8.66-6.78-16.25-8.19-22.75s-1.25-12.36,0.46-17.56c1.72-5.2,5-9.88,9.84-14.03c4.85-4.15,11.6-8.25,20.26-12.3
					c8.25-3.86,15.58-6.34,21.97-7.44c6.39-1.1,12.14-0.64,17.23,1.37c5.09,2.02,9.68,5.66,13.77,10.91
					C533.34,987.08,537.41,994.04,541.46,1002.71z"/></g><g><path fill="#ffd400" d="M719.89,639.03c1.71,11.79,1.55,22.68-0.45,32.65c-2.01,9.98-5.57,18.86-10.68,26.65
					c-5.12,7.79-11.65,14.38-19.6,19.79c-7.95,5.41-17.02,9.44-27.21,12.08l4.36,42.31c0.23,2.61-1.54,4.85-5.31,6.71
					c-3.77,1.87-9.39,3.34-16.87,4.42c-4.74,0.69-8.75,1.16-12.02,1.41c-3.27,0.25-5.88,0.23-7.83-0.08
					c-1.95-0.3-3.43-0.9-4.44-1.78c-1.01-0.88-1.7-2.1-2.07-3.66l-9.31-50.62c-0.81-4.58-1.13-8.35-0.97-11.31
					c0.16-2.96,0.87-5.41,2.13-7.35c1.26-1.94,3-3.41,5.2-4.39c2.21-0.98,4.89-1.7,8.06-2.16l3.02-0.44
					c7.62-1.1,14.02-3.27,19.2-6.52c5.18-3.24,9.28-7.14,12.29-11.68c3.01-4.54,4.95-9.67,5.81-15.37
					c0.86-5.7,0.85-11.65-0.05-17.83c-1-6.9-2.88-13.09-5.66-18.56c-2.77-5.47-6.44-10-11-13.6c-4.56-3.6-9.98-6.08-16.27-7.45
					c-6.29-1.36-13.46-1.47-21.51-0.3c-7.33,1.06-13.7,2.72-19.1,4.96c-5.4,2.25-9.99,4.53-13.76,6.83
					c-3.78,2.31-6.89,4.38-9.34,6.2c-2.46,1.82-4.4,2.84-5.84,3.05c-1.01,0.15-1.99-0.04-2.94-0.56c-0.96-0.52-1.85-1.61-2.67-3.25
					c-0.83-1.64-1.65-4.02-2.46-7.13c-0.82-3.11-1.58-7.11-2.29-12c-0.73-5.03-1.04-8.73-0.94-11.09c0.1-2.36,0.76-4.36,1.99-6.01
					c1.23-1.64,3.72-3.73,7.46-6.25c3.75-2.52,8.3-5.02,13.67-7.48c5.37-2.46,11.42-4.77,18.16-6.92
					c6.74-2.15,13.84-3.76,21.32-4.85c16.97-2.45,31.83-2.22,44.58,0.71c12.75,2.93,23.55,7.79,32.39,14.58
					c8.84,6.8,15.79,15.04,20.86,24.73C714.88,617.15,718.24,627.68,719.89,639.03z M682.78,833.11c0.85,5.9,1.1,10.93,0.75,15.09
					c-0.36,4.16-1.54,7.64-3.56,10.42c-2.02,2.79-4.93,5.01-8.73,6.66c-3.8,1.65-8.57,2.89-14.32,3.72
					c-6.04,0.87-11.08,1.05-15.12,0.53c-4.04-0.52-7.42-1.82-10.15-3.93c-2.73-2.1-4.85-5.1-6.36-8.99
					c-1.52-3.89-2.7-8.78-3.55-14.68c-0.87-6.04-1.14-11.17-0.8-15.41c0.34-4.23,1.52-7.78,3.53-10.64c2.01-2.86,4.88-5.11,8.6-6.75
					c3.73-1.64,8.61-2.9,14.65-3.77c5.75-0.83,10.68-0.99,14.79-0.49c4.11,0.51,7.54,1.85,10.27,4.02c2.74,2.17,4.87,5.24,6.4,9.2
					C680.7,822.07,681.9,827.07,682.78,833.11z"/></g><g><path fill="#e7ebfb" d="M1454.98,2099.17c89.2-0.09,178.41-0.19,267.61-0.28"/><path fill="#060f11" d="M1454.98,2102.38c-1.77,0-3.21-1.44-3.21-3.21c0-1.78,1.43-3.22,3.21-3.22l267.61-0.28c0,0,0,0,0,0
				c1.77,0,3.21,1.44,3.21,3.21c0,1.78-1.43,3.22-3.21,3.22L1454.98,2102.38C1454.98,2102.38,1454.98,2102.38,1454.98,2102.38z"/></g><g><path fill="#060f11" d="M1810.14,2085.73c-1.74,0-3.17-1.39-3.21-3.14c-0.04-1.77,1.36-3.25,3.14-3.29l151.32-3.55
				c1.68-0.05,3.25,1.36,3.29,3.14c0.04,1.77-1.36,3.25-3.14,3.29l-151.32,3.55C1810.19,2085.73,1810.16,2085.73,1810.14,2085.73z"/></g><g><path fill="#fff" d="M2250.61,431.36c-0.04-0.33-0.08-0.67-0.13-1c-5.13-38.92-39.81-68-79.05-66.71c-5.74,0.19-11.3,1-16.68,2.39
			c-16.01-44.62-60.19-75.77-111.1-72.1c-54.15,3.91-97.77,48.08-101.07,102.28c-1.3,21.41,3.57,41.6,12.99,58.96"/><path fill="#060f11" d="M1955.59,458.38c-1.14,0-2.25-0.61-2.83-1.68c-10.04-18.49-14.66-39.47-13.38-60.68
			c3.41-55.99,48.14-101.26,104.05-105.29c49.4-3.56,95.57,25.73,113.35,71.52c4.76-1.04,9.64-1.65,14.55-1.82
			c40.92-1.36,77.03,29.19,82.34,69.5l0.13,1.05c0.21,1.76-1.05,3.36-2.82,3.57c-1.77,0.2-3.36-1.05-3.57-2.82l-0.12-0.97
			c-4.88-37.07-38.18-65.15-75.75-63.91c-5.41,0.18-10.79,0.95-15.98,2.29c-1.59,0.41-3.27-0.46-3.83-2.03
			c-16.01-44.63-60.39-73.41-107.84-69.98c-52.71,3.8-94.88,46.48-98.09,99.27c-1.22,20.01,3.14,39.8,12.61,57.23
			c0.85,1.56,0.27,3.51-1.29,4.36C1956.64,458.26,1956.11,458.38,1955.59,458.38z"/></g><g><path fill="#fff" d="M2217.06,440.72c0-23.76-19.26-43.01-43.01-43.01"/><path fill="#060f11" d="M2217.06,443.93c-1.78,0-3.21-1.44-3.21-3.21c0-21.94-17.85-39.79-39.79-39.79c-1.78,0-3.21-1.44-3.21-3.21
			c0-1.78,1.44-3.21,3.21-3.21c25.49,0,46.22,20.73,46.22,46.22C2220.28,442.49,2218.84,443.93,2217.06,443.93z"/></g><g><path fill="#fff" d="M2051.79,328.73c-24.25,0-45.79,11.61-59.35,29.57"/><path fill="#060f11" d="M1992.45,361.52c-0.67,0-1.35-0.21-1.94-0.65c-1.42-1.07-1.7-3.09-0.63-4.5
			c14.8-19.61,37.37-30.85,61.91-30.85c1.78,0,3.21,1.44,3.21,3.21c0,1.78-1.44,3.21-3.21,3.21c-22.51,0-43.21,10.31-56.78,28.3
			C1994.38,361.08,1993.42,361.52,1992.45,361.52z"/></g><g><path fill="#fff" d="M1148.73,528.81c-0.03-0.26-0.06-0.52-0.1-0.79c-4.01-30.46-31.16-53.23-61.87-52.22
			c-4.49,0.15-8.85,0.78-13.05,1.87c-12.53-34.92-47.12-59.31-86.96-56.43c-42.39,3.06-76.53,37.64-79.11,80.06
			c-1.02,16.75,2.79,32.56,10.17,46.15"/><path fill="#060f11" d="M917.8,550.66c-1.14,0-2.25-0.61-2.83-1.68c-7.92-14.59-11.57-31.14-10.55-47.88
			c2.69-44.18,37.98-79.89,82.09-83.07c38.79-2.8,75.03,20.06,89.21,55.87c3.58-0.75,7.25-1.19,10.93-1.31
			c32.32-1.08,60.96,23.1,65.17,55.01l0.1,0.76c0.22,1.76-1.03,3.39-2.79,3.61c-1.77,0.23-3.36-1.01-3.58-2.77l-0.01-0.05
			l-0.09-0.72c-3.78-28.66-29.53-50.39-58.58-49.42c-4.19,0.14-8.34,0.73-12.35,1.77c-1.59,0.41-3.27-0.46-3.83-2.03
			c-12.43-34.64-46.85-56.96-83.71-54.31c-40.91,2.95-73.64,36.07-76.13,77.05c-0.95,15.53,2.44,30.89,9.78,44.42
			c0.85,1.56,0.27,3.51-1.29,4.36C918.84,550.54,918.32,550.66,917.8,550.66z"/></g><g><path fill="#fff" d="M1122.46,536.14c0-18.6-15.08-33.66-33.66-33.66"/><path fill="#060f11" d="M1122.47,539.35c-1.78,0-3.21-1.44-3.21-3.21c0-16.79-13.66-30.45-30.45-30.45c-1.78,0-3.21-1.44-3.21-3.21
			s1.44-3.21,3.21-3.21c20.33,0,36.88,16.54,36.88,36.88C1125.68,537.91,1124.24,539.35,1122.47,539.35z"/></g><g><path fill="#fff" d="M993.1,448.48c-18.98,0-35.84,9.09-46.45,23.15"/><path fill="#060f11" d="M946.65,474.84c-0.67,0-1.35-0.21-1.94-0.65c-1.42-1.07-1.7-3.09-0.63-4.5
			c11.72-15.52,29.59-24.43,49.02-24.43c1.78,0,3.21,1.44,3.21,3.21s-1.44,3.21-3.21,3.21c-17.4,0-33.4,7.97-43.89,21.87
			C948.58,474.4,947.62,474.84,946.65,474.84z"/></g></svg>